<?xml version="1.0" standalone="no"?>
<!DOCTYPE svg PUBLIC "-//W3C//DTD SVG 20010904//EN"
 "http://www.w3.org/TR/2001/REC-SVG-20010904/DTD/svg10.dtd">
<svg version="1.0" xmlns="http://www.w3.org/2000/svg"
 width="256.000000pt" height="256.000000pt" viewBox="0 0 256.000000 256.000000"
 preserveAspectRatio="xMidYMid meet">
<metadata>
Created by potrace 1.10, written by Peter Selinger 2001-2011
</metadata>
<g transform="translate(0.000000,256.000000) scale(0.100000,-0.100000)"
fill="#000000" stroke="none">
<path d="M360 2029 c0 -5 5 -7 10 -4 6 3 10 8 10 11 0 2 -4 4 -10 4 -5 0 -10
-5 -10 -11z"/>
<path d="M295 2011 c-3 -11 -15 -23 -26 -26 -10 -4 -19 -11 -19 -17 0 -6 -3
-8 -7 -5 -3 4 -13 -2 -21 -14 -7 -11 -19 -18 -25 -16 -7 2 -17 -2 -24 -9 -18
-18 -16 -29 2 -14 20 16 19 6 -1 -25 -11 -17 -16 -48 -17 -100 0 -54 -4 -75
-13 -75 -7 0 -16 -5 -20 -12 -5 -8 -2 -9 10 -5 14 5 15 3 6 -12 -13 -25 -30
-31 -53 -19 -10 5 -21 7 -25 4 -3 -3 0 -6 6 -6 7 0 12 -9 12 -21 0 -15 -5 -19
-16 -15 -8 3 -12 2 -9 -4 3 -6 2 -10 -4 -10 -6 0 -17 -13 -26 -30 -9 -17 -11
-30 -5 -30 5 0 10 -7 10 -16 0 -20 35 -65 44 -56 4 3 4 -1 0 -11 -3 -9 -10
-17 -16 -17 -5 0 -6 -5 -3 -10 4 -6 12 -4 21 5 20 19 28 19 20 0 -6 -17 9 -21
20 -4 3 6 -12 30 -35 53 -56 57 -53 76 13 123 71 50 80 66 81 143 1 71 21 154
35 145 5 -3 11 3 15 14 11 37 165 92 165 60 0 -10 3 -10 12 -1 16 16 4 25 -38
28 -20 2 -42 8 -49 14 -10 8 -15 6 -20 -9z m25 -5 c0 -3 -4 -8 -10 -11 -5 -3
-10 -1 -10 4 0 6 5 11 10 11 6 0 10 -2 10 -4z"/>
<path d="M403 2013 c9 -11 17 -27 17 -36 0 -21 4 -21 33 -3 20 13 37 14 89 3
24 -4 35 -17 15 -17 -9 0 -19 -5 -22 -11 -10 -15 87 -8 103 8 10 10 6 11 -23
8 -26 -4 -35 -1 -35 9 0 12 -47 31 -66 26 -4 -1 -11 4 -15 12 -7 11 -11 10
-19 -2 -5 -8 -10 -11 -10 -6 0 5 -6 3 -14 -3 -9 -7 -17 -8 -20 -2 -3 5 -1 12
4 14 6 3 5 4 -2 3 -7 -2 -22 1 -33 7 -19 10 -19 9 -2 -10z"/>
<path d="M230 2009 c0 -5 11 -9 25 -9 14 0 25 2 25 4 0 2 -11 6 -25 8 -14 3
-25 1 -25 -3z"/>
<path d="M165 1960 c-3 -5 -1 -10 4 -10 6 0 11 5 11 10 0 6 -2 10 -4 10 -3 0
-8 -4 -11 -10z"/>
<path d="M632 1938 c-16 -16 -15 -28 3 -28 8 0 15 -5 15 -11 0 -6 -9 -9 -19
-6 -17 4 -18 2 -9 -19 6 -13 15 -24 19 -24 4 0 5 -8 2 -18 -2 -10 2 -24 11
-31 8 -7 13 -18 10 -25 -2 -6 6 -23 18 -36 13 -14 22 -27 21 -31 -4 -11 135
-79 163 -79 38 0 102 18 110 31 10 16 -4 23 -20 10 -8 -6 -18 -11 -22 -10 -5
1 -26 -1 -46 -5 -46 -10 -66 0 -41 21 17 13 16 13 -4 4 -12 -6 -30 -11 -40
-11 -15 0 -16 2 -3 11 12 8 11 9 -5 5 -13 -3 -30 4 -47 19 -31 26 -36 40 -13
31 8 -3 15 -3 15 0 0 6 -53 28 -63 25 -5 -1 -6 8 -2 19 4 12 2 20 -5 20 -6 0
-9 4 -5 9 3 5 0 13 -6 17 -8 4 -7 9 2 15 12 7 12 9 0 9 -11 0 -11 3 -1 15 11
13 10 14 -4 9 -9 -3 -16 -1 -16 5 0 6 8 11 18 11 10 0 13 3 7 8 -6 4 -15 17
-20 30 -8 18 -13 20 -23 10z"/>
<path d="M670 1916 c0 -2 7 -7 16 -10 8 -3 12 -2 9 4 -6 10 -25 14 -25 6z"/>
<path d="M375 1880 c3 -5 10 -10 16 -10 5 0 9 5 9 10 0 6 -7 10 -16 10 -8 0
-12 -4 -9 -10z"/>
<path d="M540 1880 c0 -5 5 -10 11 -10 5 0 7 5 4 10 -3 6 -8 10 -11 10 -2 0
-4 -4 -4 -10z"/>
<path d="M2410 1783 c0 -7 -8 -13 -18 -13 -10 0 -28 -8 -41 -17 -14 -9 -21
-12 -18 -6 5 7 0 9 -13 6 -11 -3 -23 -9 -26 -14 -3 -5 3 -6 12 -2 12 4 15 3
10 -6 -5 -7 -16 -11 -26 -8 -12 3 -17 0 -14 -8 3 -7 0 -16 -7 -21 -8 -4 -10
-3 -5 4 4 7 1 12 -8 12 -9 0 -13 -6 -10 -13 3 -8 -2 -20 -11 -27 -10 -8 -15
-9 -15 -1 0 6 5 11 12 11 6 0 9 3 5 6 -7 8 -35 -8 -36 -21 -1 -5 -15 -10 -31
-9 -24 0 -27 -2 -17 -14 10 -13 8 -14 -12 -7 -17 5 -21 4 -16 -4 5 -8 -2 -10
-22 -6 -23 4 -24 4 -8 -4 19 -9 18 -10 -5 -12 -14 -1 -34 -3 -45 -4 -11 -2
-87 -6 -168 -10 -123 -7 -151 -6 -158 6 -6 10 -9 10 -9 2 0 -7 -5 -13 -11 -13
-5 0 -7 6 -3 13 6 9 5 9 -8 0 -8 -7 -18 -10 -22 -6 -3 4 -89 6 -189 5 -150 -2
-189 1 -215 14 -18 8 -41 13 -52 9 -11 -4 -20 -3 -19 2 3 20 -2 34 -11 28 -5
-3 -7 -12 -3 -20 3 -8 0 -15 -7 -15 -6 0 -8 5 -4 12 5 8 2 9 -9 5 -19 -7 -23
9 -4 17 12 5 -20 1 -70 -10 -23 -5 -25 -3 -14 10 18 22 7 20 -15 -1 -12 -12
-19 -14 -21 -6 -3 7 -12 9 -21 6 -15 -6 -15 -5 -3 10 7 9 9 17 3 17 -11 0 -26
-18 -35 -43 -6 -16 -3 -18 23 -12 18 4 30 3 30 -4 0 -6 11 -6 32 0 53 15 78
12 72 -8 -5 -15 -4 -15 4 -4 9 12 13 12 26 2 9 -8 31 -11 51 -9 21 2 35 0 35
-7 0 -12 256 -20 585 -18 185 1 206 3 284 27 86 27 96 31 202 104 46 32 72 43
101 44 57 1 65 -12 40 -63 -12 -23 -19 -47 -15 -52 3 -5 -3 -7 -13 -5 -13 2
-32 -13 -62 -52 -45 -58 -71 -77 -58 -44 4 11 -10 3 -33 -21 -36 -34 -41 -36
-41 -18 0 17 -8 13 -47 -28 -49 -50 -70 -62 -59 -33 6 15 4 15 -20 -1 -14 -9
-34 -15 -43 -12 -10 2 -32 -8 -49 -22 l-32 -26 35 -37 c36 -38 44 -63 23 -71
-7 -2 -10 -7 -7 -11 4 -4 14 0 23 9 19 19 20 19 88 -71 42 -54 46 -66 41 -98
-4 -25 -2 -36 7 -36 7 0 10 -7 6 -15 -3 -8 3 -19 14 -25 27 -15 34 -12 16 6
-9 8 -17 30 -17 47 -1 18 -2 37 -4 42 -1 6 -3 24 -4 40 -1 19 -4 25 -9 17 -6
-8 -15 -1 -29 25 -12 21 -51 70 -88 108 -46 49 -61 71 -50 73 8 2 15 8 15 13
0 5 10 9 23 8 52 -1 117 21 117 41 0 10 39 25 58 22 6 -2 12 2 12 9 0 8 4 8
15 -1 12 -10 15 -7 20 12 6 24 35 35 35 14 0 -6 9 4 21 23 11 19 27 40 35 48
12 13 14 12 15 -4 1 -10 4 -4 8 12 3 17 13 30 21 30 8 0 19 10 26 22 6 13 13
20 16 18 3 -3 8 1 12 10 3 9 2 13 -4 10 -6 -3 -10 -1 -10 5 0 6 7 13 15 16 17
7 20 49 5 59 -5 3 -10 15 -10 26 0 14 -4 18 -12 12 -21 -13 -42 -13 -50 0 -6
9 -8 9 -8 0z"/>
<path d="M63 1733 c9 -2 23 -2 30 0 6 3 -1 5 -18 5 -16 0 -22 -2 -12 -5z"/>
<path d="M873 1733 c9 -2 23 -2 30 0 6 3 -1 5 -18 5 -16 0 -22 -2 -12 -5z"/>
<path d="M1413 1733 c9 -2 23 -2 30 0 6 3 -1 5 -18 5 -16 0 -22 -2 -12 -5z"/>
<path d="M1708 1733 c23 -2 61 -2 85 0 23 2 4 4 -43 4 -47 0 -66 -2 -42 -4z"/>
<path d="M1878 1733 c23 -2 61 -2 85 0 23 2 4 4 -43 4 -47 0 -66 -2 -42 -4z"/>
<path d="M2028 1733 c6 -2 18 -2 25 0 6 3 1 5 -13 5 -14 0 -19 -2 -12 -5z"/>
<path d="M2098 1733 c12 -2 30 -2 40 0 9 3 -1 5 -23 4 -22 0 -30 -2 -17 -4z"/>
<path d="M2188 1733 c7 -3 16 -2 19 1 4 3 -2 6 -13 5 -11 0 -14 -3 -6 -6z"/>
<path d="M976 1698 c3 -5 10 -6 15 -3 13 9 11 12 -6 12 -8 0 -12 -4 -9 -9z"/>
<path d="M2205 1700 c-3 -6 1 -7 9 -4 18 7 21 14 7 14 -6 0 -13 -4 -16 -10z"/>
<path d="M103 1682 c1 -12 6 -18 15 -15 7 3 10 9 5 12 -4 3 -11 10 -15 15 -4
4 -6 -1 -5 -12z"/>
<path d="M440 1683 c0 -16 17 -17 22 -3 2 6 13 2 25 -9 11 -11 24 -17 27 -14
12 12 6 23 -14 23 -11 0 -20 4 -20 9 0 6 -9 9 -20 8 -11 -1 -20 -7 -20 -14z"/>
<path d="M1136 1683 c-6 -14 -5 -15 5 -6 7 7 10 15 7 18 -3 3 -9 -2 -12 -12z"/>
<path d="M350 1680 c0 -5 4 -10 9 -10 6 0 13 5 16 10 3 6 -1 10 -9 10 -9 0
-16 -4 -16 -10z"/>
<path d="M1040 1679 c0 -5 5 -7 10 -4 6 3 10 8 10 11 0 2 -4 4 -10 4 -5 0 -10
-5 -10 -11z"/>
<path d="M1180 1686 c0 -2 7 -6 15 -10 8 -3 15 -1 15 4 0 6 -7 10 -15 10 -8 0
-15 -2 -15 -4z"/>
<path d="M396 1673 c-11 -11 -6 -23 9 -23 8 0 15 4 15 9 0 13 -16 22 -24 14z"/>
<path d="M430 1645 c0 -8 7 -15 15 -15 9 0 12 6 9 15 -4 8 -10 15 -15 15 -5 0
-9 -7 -9 -15z"/>
<path d="M1215 1650 c3 -5 14 -10 23 -10 15 0 15 2 2 10 -20 13 -33 13 -25 0z"/>
<path d="M735 1610 c4 -6 11 -8 16 -5 14 9 11 15 -7 15 -8 0 -12 -5 -9 -10z"/>
<path d="M2250 1610 c0 -5 5 -10 11 -10 5 0 7 5 4 10 -3 6 -8 10 -11 10 -2 0
-4 -4 -4 -10z"/>
<path d="M2462 1604 c-7 -8 -8 -14 -3 -14 10 0 25 19 20 25 -2 1 -10 -3 -17
-11z"/>
<path d="M686 1594 c-9 -22 -8 -24 8 -18 20 8 29 34 12 34 -8 0 -17 -7 -20
-16z"/>
<path d="M803 1603 c-15 -5 -17 -23 -4 -23 5 0 11 7 15 15 3 8 4 15 3 14 -1 0
-8 -3 -14 -6z"/>
<path d="M870 1590 c0 -5 4 -10 9 -10 5 0 18 -3 28 -7 17 -6 17 -6 1 10 -18
19 -38 22 -38 7z"/>
<path d="M1060 1590 c0 -5 5 -10 10 -10 6 0 10 5 10 10 0 6 -4 10 -10 10 -5 0
-10 -4 -10 -10z"/>
<path d="M720 1581 c0 -3 4 -12 9 -20 8 -12 12 -12 25 2 22 21 20 25 -9 25
-14 0 -25 -3 -25 -7z"/>
<path d="M830 1570 c0 -11 2 -20 4 -20 2 0 6 9 9 20 3 11 1 20 -4 20 -5 0 -9
-9 -9 -20z"/>
<path d="M2240 1582 c0 -5 7 -13 16 -16 10 -4 14 -1 12 6 -5 15 -28 23 -28 10z"/>
<path d="M650 1565 c0 -8 7 -15 16 -15 14 0 14 3 4 15 -7 8 -14 15 -16 15 -2
0 -4 -7 -4 -15z"/>
<path d="M2205 1570 c-3 -5 -1 -10 4 -10 6 0 11 5 11 10 0 6 -2 10 -4 10 -3 0
-8 -4 -11 -10z"/>
<path d="M395 1560 c-3 -5 1 -10 9 -10 9 0 16 5 16 10 0 6 -4 10 -9 10 -6 0
-13 -4 -16 -10z"/>
<path d="M2285 1560 c-3 -5 -1 -10 4 -10 6 0 11 5 11 10 0 6 -2 10 -4 10 -3 0
-8 -4 -11 -10z"/>
<path d="M1366 1541 c-4 -5 -2 -12 3 -15 5 -4 12 -2 15 3 4 5 2 12 -3 15 -5 4
-12 2 -15 -3z"/>
<path d="M2070 1535 c0 -8 -5 -15 -11 -15 -5 0 -7 -5 -4 -10 4 -6 12 -5 21 4
16 17 19 36 4 36 -5 0 -10 -7 -10 -15z"/>
<path d="M2150 1535 c0 -8 4 -15 9 -15 5 0 11 7 15 15 3 9 0 15 -9 15 -8 0
-15 -7 -15 -15z"/>
<path d="M5 1531 c-3 -5 -1 -12 5 -16 5 -3 10 1 10 9 0 18 -6 21 -15 7z"/>
<path d="M620 1530 c0 -5 7 -10 15 -10 8 0 15 5 15 10 0 6 -7 10 -15 10 -8 0
-15 -4 -15 -10z"/>
<path d="M820 1530 c0 -5 5 -10 10 -10 6 0 10 5 10 10 0 6 -4 10 -10 10 -5 0
-10 -4 -10 -10z"/>
<path d="M2195 1531 c-3 -5 -1 -12 5 -16 5 -3 10 1 10 9 0 18 -6 21 -15 7z"/>
<path d="M540 1504 c0 -8 5 -12 10 -9 6 3 10 10 10 16 0 5 -4 9 -10 9 -5 0
-10 -7 -10 -16z"/>
<path d="M870 1510 c0 -5 5 -10 10 -10 6 0 10 5 10 10 0 6 -4 10 -10 10 -5 0
-10 -4 -10 -10z"/>
<path d="M1455 1510 c3 -5 10 -10 16 -10 5 0 9 5 9 10 0 6 -7 10 -16 10 -8 0
-12 -4 -9 -10z"/>
<path d="M740 1500 c0 -5 5 -10 10 -10 6 0 10 5 10 10 0 6 -4 10 -10 10 -5 0
-10 -4 -10 -10z"/>
<path d="M1560 1500 c0 -5 6 -10 14 -10 8 0 18 5 21 10 3 6 -3 10 -14 10 -12
0 -21 -4 -21 -10z"/>
<path d="M2016 1501 c-4 -7 -5 -15 -2 -18 9 -9 19 4 14 18 -4 11 -6 11 -12 0z"/>
<path d="M1730 1487 c-22 -9 -23 -11 -6 -14 10 -3 23 0 29 6 16 16 5 20 -23 8z"/>
<path d="M1670 1486 c0 -2 8 -10 18 -17 15 -13 16 -12 3 4 -13 16 -21 21 -21
13z"/>
<path d="M275 1459 c-24 -11 -62 -19 -97 -19 -36 0 -58 -4 -58 -11 0 -16 158
-8 169 9 11 19 37 -25 36 -60 -1 -17 4 -28 12 -28 7 0 13 -9 13 -19 0 -11 7
-26 15 -35 8 -8 15 -19 15 -24 0 -5 6 -15 13 -21 17 -13 42 4 52 37 7 24 -8
29 -35 12 -13 -8 -13 -11 -1 -19 8 -5 10 -14 6 -22 -6 -9 -11 -6 -18 12 -6 13
-9 30 -8 36 1 8 -4 10 -14 7 -18 -7 -18 -8 -6 34 9 30 8 32 -16 32 -22 0 -24
2 -13 15 11 13 10 18 -6 31 -10 9 -14 13 -7 9 7 -3 17 4 23 16 14 25 8 35 -10
14 -7 -8 -17 -15 -22 -15 -6 0 -5 7 2 15 16 19 5 18 -45 -6z"/>
<path d="M760 1469 c0 -5 5 -7 10 -4 6 3 10 8 10 11 0 2 -4 4 -10 4 -5 0 -10
-5 -10 -11z"/>
<path d="M896 1471 c-4 -7 -5 -15 -2 -18 9 -9 19 4 14 18 -4 11 -6 11 -12 0z"/>
<path d="M710 1450 c0 -5 7 -10 15 -10 8 0 15 5 15 10 0 6 -7 10 -15 10 -8 0
-15 -4 -15 -10z"/>
<path d="M825 1439 c-10 -15 3 -25 16 -12 7 7 7 13 1 17 -6 3 -14 1 -17 -5z"/>
<path d="M1560 1441 c0 -5 5 -13 10 -16 6 -3 10 -2 10 4 0 5 -4 13 -10 16 -5
3 -10 2 -10 -4z"/>
<path d="M1795 1430 c3 -5 10 -10 16 -10 5 0 9 5 9 10 0 6 -7 10 -16 10 -8 0
-12 -4 -9 -10z"/>
<path d="M2236 1427 c3 -10 9 -15 12 -12 3 3 0 11 -7 18 -10 9 -11 8 -5 -6z"/>
<path d="M608 1423 c7 -3 16 -2 19 1 4 3 -2 6 -13 5 -11 0 -14 -3 -6 -6z"/>
<path d="M476 1411 c-4 -7 -5 -15 -2 -18 9 -9 19 4 14 18 -4 11 -6 11 -12 0z"/>
<path d="M715 1400 c-3 -5 1 -10 10 -10 9 0 13 5 10 10 -3 6 -8 10 -10 10 -2
0 -7 -4 -10 -10z"/>
<path d="M1456 1401 c-4 -5 3 -7 14 -4 23 6 26 13 6 13 -8 0 -17 -4 -20 -9z"/>
<path d="M1190 1390 c0 -5 5 -10 10 -10 6 0 10 5 10 10 0 6 -4 10 -10 10 -5 0
-10 -4 -10 -10z"/>
<path d="M1550 1390 c0 -5 5 -10 10 -10 6 0 10 5 10 10 0 6 -4 10 -10 10 -5 0
-10 -4 -10 -10z"/>
<path d="M438 1384 c6 -3 12 -12 12 -20 0 -8 5 -14 11 -14 19 0 4 35 -16 37
-11 2 -14 0 -7 -3z"/>
<path d="M1430 1370 c0 -5 5 -10 10 -10 6 0 10 5 10 10 0 6 -4 10 -10 10 -5 0
-10 -4 -10 -10z"/>
<path d="M1470 1370 c0 -5 7 -10 15 -10 8 0 15 5 15 10 0 6 -7 10 -15 10 -8 0
-15 -4 -15 -10z"/>
<path d="M2057 1373 c-3 -5 2 -14 12 -20 14 -9 20 -7 29 8 7 10 8 19 3 19 -5
0 -12 -6 -14 -12 -4 -10 -8 -10 -15 1 -5 7 -12 9 -15 4z"/>
<path d="M785 1361 c-6 -11 9 -23 19 -14 9 9 7 23 -3 23 -6 0 -12 -4 -16 -9z"/>
<path d="M1331 1334 c0 -11 3 -14 6 -6 3 7 2 16 -1 19 -3 4 -6 -2 -5 -13z"/>
<path d="M1590 1339 c0 -5 5 -7 10 -4 6 3 10 8 10 11 0 2 -4 4 -10 4 -5 0 -10
-5 -10 -11z"/>
<path d="M1670 1334 c0 -8 5 -12 10 -9 6 3 10 10 10 16 0 5 -4 9 -10 9 -5 0
-10 -7 -10 -16z"/>
<path d="M1555 1330 c-3 -5 -1 -10 4 -10 6 0 11 5 11 10 0 6 -2 10 -4 10 -3 0
-8 -4 -11 -10z"/>
<path d="M1190 1320 c0 -5 4 -10 9 -10 6 0 13 5 16 10 3 6 -1 10 -9 10 -9 0
-16 -4 -16 -10z"/>
<path d="M692 1290 c0 -14 2 -19 5 -12 2 6 2 18 0 25 -3 6 -5 1 -5 -13z"/>
<path d="M890 1296 c0 -9 5 -16 10 -16 6 0 10 4 10 9 0 6 -4 13 -10 16 -5 3
-10 -1 -10 -9z"/>
<path d="M2010 1300 c0 -5 5 -10 11 -10 5 0 7 5 4 10 -3 6 -8 10 -11 10 -2 0
-4 -4 -4 -10z"/>
<path d="M710 1290 c0 -5 5 -10 10 -10 6 0 10 5 10 10 0 6 -4 10 -10 10 -5 0
-10 -4 -10 -10z"/>
<path d="M1850 1290 c0 -5 5 -10 10 -10 6 0 10 5 10 10 0 6 -4 10 -10 10 -5 0
-10 -4 -10 -10z"/>
<path d="M346 1277 c3 -10 9 -15 12 -12 3 3 0 11 -7 18 -10 9 -11 8 -5 -6z"/>
<path d="M1660 1275 c7 -8 16 -12 21 -9 13 8 1 24 -18 24 -13 0 -13 -3 -3 -15z"/>
<path d="M1710 1270 c0 -5 7 -10 15 -10 8 0 15 5 15 10 0 6 -7 10 -15 10 -8 0
-15 -4 -15 -10z"/>
<path d="M440 1241 c-14 -13 -19 -21 -11 -16 8 4 16 2 21 -5 5 -8 10 -3 14 15
9 35 6 36 -24 6z"/>
<path d="M770 1260 c0 -5 5 -10 10 -10 6 0 10 5 10 10 0 6 -4 10 -10 10 -5 0
-10 -4 -10 -10z"/>
<path d="M493 1250 c-34 -14 -28 -29 10 -25 23 3 28 2 17 -5 -8 -5 -10 -10 -4
-10 6 0 11 -14 12 -31 1 -25 -3 -29 -16 -25 -13 5 -13 3 2 -9 14 -11 19 -26
18 -57 0 -29 2 -37 7 -24 6 16 10 14 24 -17 31 -64 25 -78 -75 -187 -13 -13
-33 -37 -45 -53 -13 -17 -24 -24 -28 -17 -3 5 -11 7 -17 4 -7 -4 -6 -9 3 -14
9 -6 4 -18 -19 -48 -18 -22 -32 -45 -32 -51 0 -6 -4 -11 -9 -11 -11 0 -2 38
10 46 5 3 9 10 9 17 0 28 -31 -23 -32 -52 -1 -23 -7 -35 -22 -41 -12 -5 -15
-9 -7 -9 19 -1 -14 -38 -40 -46 -11 -4 -17 -10 -15 -14 3 -4 -11 -15 -30 -26
-19 -10 -34 -22 -34 -26 0 -5 -6 -6 -13 -3 -10 3 -13 -5 -13 -31 1 -19 5 -35
10 -35 4 0 6 -7 2 -15 -3 -8 -2 -14 2 -13 4 1 18 -4 31 -11 16 -9 40 -11 75
-7 28 4 62 7 75 8 16 0 20 3 11 8 -8 5 -9 9 -1 14 6 4 15 4 21 1 5 -3 7 0 4 8
-3 8 3 20 12 28 10 8 15 9 11 2 -4 -6 -2 -15 4 -19 8 -4 9 -3 5 4 -4 7 5 24
21 39 15 14 22 23 14 18 -10 -5 -12 -4 -7 3 4 7 13 12 20 12 7 0 22 11 32 25
10 14 24 25 31 25 7 0 13 5 13 10 0 14 27 12 33 -2 4 -10 6 -10 6 0 1 7 6 10
11 7 6 -3 10 1 10 9 0 17 16 22 22 7 2 -5 10 -2 18 7 13 14 12 15 -5 8 -12 -4
-4 9 20 32 22 21 43 37 48 35 4 -2 7 5 7 15 0 11 8 30 18 42 17 21 19 21 34 6
16 -15 17 -15 15 3 0 11 -6 17 -14 14 -7 -3 -13 0 -13 6 0 6 5 11 11 11 5 0 7
5 4 10 -3 6 -2 10 4 10 5 0 14 -7 19 -16 6 -11 11 -13 16 -5 4 6 2 11 -4 11
-10 0 -8 19 6 72 3 9 11 15 18 12 10 -4 12 2 9 20 -4 19 -1 26 10 26 20 0 35
-22 19 -28 -19 -6 -14 -37 8 -57 11 -10 20 -14 20 -9 0 4 9 -9 19 -29 10 -21
18 -45 16 -55 -1 -9 0 -11 2 -4 3 7 17 -13 33 -45 16 -32 26 -61 23 -66 -8
-13 7 -77 18 -77 6 0 6 7 -1 19 -7 13 -7 22 0 26 5 3 10 1 10 -6 0 -7 8 -21
17 -31 13 -14 14 -21 5 -30 -7 -7 -12 -16 -12 -21 0 -5 7 -1 16 7 8 9 20 13
26 10 6 -4 5 -10 -3 -16 -10 -6 -7 -7 10 -3 17 5 22 4 19 -6 -3 -8 5 -21 16
-30 11 -10 26 -37 32 -61 l12 -43 1 38 c1 50 -17 83 -73 132 -25 22 -46 45
-46 51 0 7 -17 45 -37 85 -20 41 -36 78 -34 83 1 5 -10 21 -25 37 -15 16 -23
32 -19 39 4 7 1 17 -6 22 -11 7 -11 11 -2 15 17 6 -47 92 -69 93 -9 0 -19 -10
-23 -22 -11 -41 -38 -98 -45 -98 -5 0 -10 -10 -14 -23 -6 -26 -25 -50 -111
-143 -44 -49 -64 -64 -79 -60 -12 3 -32 -5 -52 -22 -18 -15 -49 -40 -69 -56
-20 -17 -33 -36 -31 -43 3 -7 1 -12 -3 -10 -5 1 -23 -11 -41 -26 -36 -32 -77
-47 -131 -47 -63 0 -86 56 -37 92 72 53 109 90 153 151 26 37 86 109 133 160
101 110 115 137 106 212 -6 45 -9 53 -20 44 -11 -9 -14 -6 -14 18 0 16 -5 34
-11 40 -7 7 -7 13 -1 17 12 7 4 75 -11 94 -11 14 -14 14 -44 2z m397 -361 c0
-5 -4 -7 -10 -4 -5 3 -10 1 -10 -4 0 -6 5 -11 10 -11 6 0 10 -8 10 -17 0 -16
-1 -16 -16 -1 -9 9 -14 24 -11 32 7 18 27 22 27 5z"/>
<path d="M870 1230 c0 -5 4 -10 9 -10 6 0 13 5 16 10 3 6 -1 10 -9 10 -9 0
-16 -4 -16 -10z"/>
<path d="M830 1220 c0 -5 7 -10 15 -10 8 0 15 5 15 10 0 6 -7 10 -15 10 -8 0
-15 -4 -15 -10z"/>
<path d="M1200 1221 c0 -6 5 -13 10 -16 6 -3 10 1 10 9 0 9 -4 16 -10 16 -5 0
-10 -4 -10 -9z"/>
<path d="M1982 1218 c6 -18 28 -21 28 -4 0 9 -7 16 -16 16 -9 0 -14 -5 -12
-12z"/>
<path d="M2052 1221 c4 -13 18 -16 19 -4 0 4 -5 9 -11 12 -7 2 -11 -2 -8 -8z"/>
<path d="M1346 1204 c-11 -8 -16 -14 -10 -14 13 0 39 18 34 24 -3 2 -14 -2
-24 -10z"/>
<path d="M1385 1210 c-3 -5 -1 -10 4 -10 6 0 11 5 11 10 0 6 -2 10 -4 10 -3 0
-8 -4 -11 -10z"/>
<path d="M980 1196 c0 -9 5 -16 10 -16 6 0 10 4 10 9 0 6 -4 13 -10 16 -5 3
-10 -1 -10 -9z"/>
<path d="M1601 1194 c0 -11 3 -14 6 -6 3 7 2 16 -1 19 -3 4 -6 -2 -5 -13z"/>
<path d="M1720 1176 c0 -9 5 -16 10 -16 6 0 10 4 10 9 0 6 -4 13 -10 16 -5 3
-10 -1 -10 -9z"/>
<path d="M1320 1170 c0 -5 4 -10 9 -10 6 0 13 5 16 10 3 6 -1 10 -9 10 -9 0
-16 -4 -16 -10z"/>
<path d="M1925 1170 c-3 -5 -1 -10 4 -10 6 0 11 5 11 10 0 6 -2 10 -4 10 -3 0
-8 -4 -11 -10z"/>
<path d="M2005 1170 c-3 -5 -1 -10 4 -10 6 0 11 5 11 10 0 6 -2 10 -4 10 -3 0
-8 -4 -11 -10z"/>
<path d="M2061 1164 c0 -11 3 -14 6 -6 3 7 2 16 -1 19 -3 4 -6 -2 -5 -13z"/>
<path d="M2090 1141 c0 -5 5 -13 10 -16 6 -3 10 -2 10 4 0 5 -4 13 -10 16 -5
3 -10 2 -10 -4z"/>
<path d="M2142 1129 c-12 -18 -11 -24 1 -36 13 -14 15 -11 14 21 -1 20 -1 36
-2 36 0 0 -6 -10 -13 -21z"/>
<path d="M1325 1064 c-97 -64 -117 -73 -172 -79 -89 -10 -101 -35 -46 -91 11
-11 19 -34 19 -61 2 -45 33 -133 48 -133 4 0 5 10 1 23 -4 12 -8 31 -9 43 -1
11 -6 26 -10 33 -5 8 -3 17 5 23 11 7 11 11 2 15 -7 2 -13 13 -13 23 0 9 -7
23 -15 30 -8 6 -13 22 -12 33 1 16 -3 22 -15 21 -10 -1 -15 2 -12 7 2 5 23 7
44 5 22 -2 38 0 35 5 -6 9 48 4 65 -6 6 -3 7 0 4 9 -3 9 -1 16 6 16 6 0 9 4 6
8 -7 12 39 36 53 28 6 -4 11 0 11 8 0 19 27 34 54 30 12 -3 15 -2 8 2 -19 9
-5 23 18 17 15 -4 18 -11 14 -29 -10 -39 -11 -117 -2 -141 4 -14 4 -23 -2 -23
-6 0 -10 -5 -10 -11 0 -6 7 -9 15 -5 17 6 20 -5 4 -21 -12 -12 16 -47 31 -38
5 3 7 -12 5 -32 -2 -21 -1 -32 1 -25 9 20 23 14 17 -8 -3 -12 0 -20 7 -20 9 0
10 -3 1 -13 -6 -8 -8 -17 -5 -20 8 -7 -34 -77 -46 -77 -5 0 -10 5 -12 12 -3 7
-7 5 -11 -6 -5 -12 -3 -15 6 -11 6 4 1 -2 -13 -13 -17 -15 -27 -17 -32 -9 -5
8 -9 6 -13 -5 -5 -13 -13 -14 -38 -7 -30 8 -30 7 -13 -6 19 -15 19 -15 -2 -15
-11 0 -26 -8 -32 -17 -10 -16 -11 -15 -7 5 5 23 -8 31 -16 10 -2 -7 -8 9 -12
36 -5 34 -10 44 -17 35 -6 -10 -8 -1 -6 25 4 31 2 35 -7 22 -17 -22 -27 -8
-13 18 10 18 9 19 -4 9 -8 -7 -24 -11 -36 -8 -15 2 -22 -1 -22 -11 0 -8 7 -14
16 -12 15 3 44 -44 125 -199 15 -28 3 -77 -16 -69 -8 3 -15 2 -15 -2 0 -4 -18
-6 -40 -4 -31 3 -40 1 -40 -11 0 -10 7 -13 21 -10 12 3 25 0 29 -7 7 -11 12
-10 25 3 21 21 39 22 31 2 -3 -8 -2 -15 3 -15 5 0 12 16 15 35 5 26 11 33 24
28 13 -4 13 -2 -3 10 -15 12 -16 16 -5 17 23 0 43 -16 36 -29 -10 -15 6 -14
29 3 10 7 27 11 37 8 10 -2 24 1 32 7 8 7 18 11 22 10 17 -4 58 18 47 24 -6 4
-18 1 -26 -7 -8 -8 -17 -12 -21 -9 -7 8 45 44 55 38 3 -3 14 4 24 15 10 11 23
20 29 20 6 0 17 9 24 20 13 21 42 28 42 10 0 -5 5 -10 12 -10 6 0 3 9 -7 21
-19 20 -19 20 9 10 15 -6 25 -7 22 -3 -3 5 2 21 10 37 11 22 13 46 8 97 -4 39
-3 68 3 68 5 0 9 9 10 20 2 28 -9 25 -28 -8 -13 -24 -14 -39 -6 -92 9 -58 9
-65 -8 -74 -10 -6 -46 -32 -79 -57 -34 -26 -76 -54 -94 -63 -17 -9 -36 -26
-43 -37 -10 -19 -17 -21 -67 -16 -58 6 -88 27 -77 55 3 8 5 20 5 28 0 8 9 14
21 14 11 0 44 11 72 25 89 42 126 124 96 216 -6 19 -13 40 -15 48 -3 11 -7 11
-19 1 -9 -7 -18 -10 -22 -6 -3 3 -2 6 4 6 11 0 11 24 0 53 -16 39 -16 51 -6
120 14 96 16 128 10 131 -3 2 -55 -30 -116 -70z m-205 -134 c0 -5 -5 -10 -11
-10 -5 0 -7 5 -4 10 3 6 8 10 11 10 2 0 4 -4 4 -10z"/>
<path d="M1900 1125 c0 -8 5 -15 10 -15 6 0 10 7 10 15 0 8 -4 15 -10 15 -5 0
-10 -7 -10 -15z"/>
<path d="M1330 1120 c0 -5 5 -10 10 -10 6 0 10 5 10 10 0 6 -4 10 -10 10 -5 0
-10 -4 -10 -10z"/>
<path d="M1647 1103 c-14 -13 -6 -23 18 -23 28 0 34 15 9 24 -19 7 -19 7 -27
-1z"/>
<path d="M956 1092 c-3 -6 -1 -14 5 -17 15 -10 25 3 12 16 -7 7 -13 7 -17 1z"/>
<path d="M495 1080 c3 -5 8 -10 11 -10 2 0 4 5 4 10 0 6 -5 10 -11 10 -5 0 -7
-4 -4 -10z"/>
<path d="M1990 1080 c0 -5 5 -10 10 -10 6 0 10 5 10 10 0 6 -4 10 -10 10 -5 0
-10 -4 -10 -10z"/>
<path d="M780 1065 c0 -16 16 -20 24 -6 3 5 -1 11 -9 15 -9 3 -15 0 -15 -9z"/>
<path d="M2095 1060 c3 -5 8 -10 11 -10 2 0 4 5 4 10 0 6 -5 10 -11 10 -5 0
-7 -4 -4 -10z"/>
<path d="M1761 1028 c-5 -13 -27 -45 -50 -73 -39 -48 -54 -95 -29 -95 6 0 1
-11 -12 -25 -13 -14 -21 -28 -18 -31 4 -3 12 4 18 16 l12 22 20 -28 c19 -28
19 -28 13 -4 -4 14 -13 40 -21 58 -7 18 -9 30 -4 27 6 -3 10 4 10 15 0 16 4
20 16 16 8 -3 12 -2 9 3 -3 6 6 21 19 34 14 14 22 27 20 30 -3 3 4 10 15 17
12 6 21 7 21 1 0 -5 -6 -12 -12 -15 -7 -2 -2 -4 12 -3 18 2 25 -3 25 -17 0
-11 7 -21 15 -23 13 -4 13 -3 0 6 -8 5 -12 13 -9 16 8 8 39 -5 39 -16 0 -5 7
-9 15 -9 8 0 15 -4 15 -10 0 -5 5 -10 10 -10 6 0 19 -9 30 -20 11 -11 16 -20
10 -20 -5 0 -10 -4 -10 -10 0 -5 7 -7 15 -4 8 4 15 1 15 -5 0 -6 7 -11 15 -11
8 0 15 -5 15 -11 0 -5 5 -7 10 -4 6 3 10 -3 10 -14 0 -14 6 -21 20 -21 29 0
82 -29 75 -40 -4 -6 -2 -10 4 -10 18 0 24 23 8 32 -9 4 -23 15 -31 23 -8 8
-21 15 -29 15 -7 0 -24 11 -37 25 -13 14 -29 25 -37 25 -7 0 -13 6 -13 13 0
13 -9 21 -119 102 -41 30 -78 55 -83 55 -5 0 -12 -10 -17 -22z"/>
<path d="M2160 1040 c-13 -8 -12 -10 3 -10 9 0 17 5 17 10 0 12 -1 12 -20 0z"/>
<path d="M2040 1010 c0 -5 5 -10 11 -10 5 0 7 5 4 10 -3 6 -8 10 -11 10 -2 0
-4 -4 -4 -10z"/>
<path d="M2200 1011 c0 -12 83 -92 112 -107 19 -10 19 -12 3 -18 -15 -6 -14
-9 8 -26 14 -11 34 -39 45 -63 11 -23 43 -90 71 -149 35 -73 51 -120 51 -147
0 -43 -23 -76 -47 -67 -8 3 -19 6 -24 6 -5 0 -23 30 -40 68 -17 37 -40 87 -51
112 -27 58 -86 131 -103 128 -8 -2 -21 6 -29 17 -14 18 -15 18 -16 3 0 -21
-16 -24 -23 -5 -3 8 -9 6 -20 -7 -12 -17 -12 -22 -1 -34 12 -11 16 -11 30 2 8
9 21 16 27 16 8 0 7 -4 -1 -12 -7 -7 -12 -17 -12 -23 0 -5 5 -2 11 8 5 9 15
17 20 17 6 0 8 -4 5 -9 -4 -5 3 -7 14 -4 18 5 22 -1 19 -23 0 -4 5 -11 13 -15
11 -8 11 -10 -1 -18 -9 -6 -10 -11 -2 -15 6 -4 11 -2 11 3 0 21 20 11 26 -14
3 -13 12 -29 20 -36 19 -16 18 -30 -3 -22 -15 6 -16 5 -3 -9 9 -10 17 -12 19
-5 2 5 14 -18 27 -52 13 -35 21 -67 18 -72 -3 -5 1 -6 9 -3 8 3 29 -4 46 -14
l32 -20 23 23 c18 18 22 33 21 76 -1 30 -9 68 -18 85 -9 17 -13 35 -9 38 3 4
0 11 -8 16 -11 7 -12 11 0 24 7 9 10 19 7 23 -4 3 -9 -2 -13 -11 -3 -9 -10
-13 -15 -10 -5 3 -7 10 -4 15 4 5 -3 21 -14 35 -12 15 -21 34 -20 43 0 12 2
11 9 -4 10 -23 13 -5 4 19 -5 14 -9 14 -22 4 -13 -11 -14 -10 -9 12 3 14 1 32
-4 40 -9 12 -10 11 -5 -4 6 -16 4 -17 -9 -6 -9 7 -14 19 -11 27 3 8 -1 16 -9
19 -21 8 -19 24 3 24 9 1 -2 10 -25 21 -24 11 -43 26 -43 35 0 8 -4 13 -9 9
-5 -3 -12 4 -16 15 -4 11 -11 18 -16 15 -5 -4 -9 -2 -9 4 0 6 -9 15 -20 21
-12 7 -20 7 -20 1z m-40 -271 c0 -5 -4 -10 -10 -10 -5 0 -10 5 -10 10 0 6 5
10 10 10 6 0 10 -4 10 -10z"/>
<path d="M1280 1000 c0 -5 5 -10 11 -10 5 0 7 5 4 10 -3 6 -8 10 -11 10 -2 0
-4 -4 -4 -10z"/>
<path d="M1890 1000 c0 -5 5 -10 10 -10 6 0 10 5 10 10 0 6 -4 10 -10 10 -5 0
-10 -4 -10 -10z"/>
<path d="M1995 990 c3 -5 13 -10 21 -10 8 0 12 5 9 10 -3 6 -13 10 -21 10 -8
0 -12 -4 -9 -10z"/>
<path d="M1980 960 c0 -5 5 -10 10 -10 6 0 10 5 10 10 0 6 -4 10 -10 10 -5 0
-10 -4 -10 -10z"/>
<path d="M2010 950 c0 -5 5 -10 10 -10 6 0 10 5 10 10 0 6 -4 10 -10 10 -5 0
-10 -4 -10 -10z"/>
<path d="M2203 936 c-25 -12 -32 -29 -8 -20 8 4 15 1 15 -5 0 -6 4 -11 10 -11
5 0 7 7 4 15 -4 10 0 15 11 15 9 0 13 5 10 10 -7 12 -12 11 -42 -4z"/>
<path d="M1520 929 c0 -5 5 -7 10 -4 6 3 10 8 10 11 0 2 -4 4 -10 4 -5 0 -10
-5 -10 -11z"/>
<path d="M2370 926 c0 -2 7 -7 16 -10 8 -3 12 -2 9 4 -6 10 -25 14 -25 6z"/>
<path d="M1560 910 c0 -5 5 -10 10 -10 6 0 10 5 10 10 0 6 -4 10 -10 10 -5 0
-10 -4 -10 -10z"/>
<path d="M1895 910 c3 -5 11 -10 16 -10 6 0 7 5 4 10 -3 6 -11 10 -16 10 -6 0
-7 -4 -4 -10z"/>
<path d="M1713 886 c0 -18 3 -24 9 -18 7 7 7 16 0 28 -8 14 -9 13 -9 -10z"/>
<path d="M1747 883 c3 -7 9 -13 13 -13 4 0 10 6 13 13 3 7 -3 13 -13 13 -10 0
-16 -6 -13 -13z"/>
<path d="M2160 881 c0 -11 31 -24 39 -16 3 3 -1 10 -9 15 -19 12 -30 12 -30 1z"/>
<path d="M995 871 c-3 -5 -1 -12 5 -16 5 -3 10 1 10 9 0 18 -6 21 -15 7z"/>
<path d="M1030 865 c0 -8 7 -15 15 -15 9 0 12 6 9 15 -4 8 -10 15 -15 15 -5 0
-9 -7 -9 -15z"/>
<path d="M2210 864 c0 -14 3 -14 15 -4 12 10 15 10 15 -4 0 -9 7 -16 15 -16
20 0 19 10 -2 26 -24 18 -43 17 -43 -2z"/>
<path d="M1724 849 c-3 -6 -1 -16 6 -22 10 -9 11 -9 5 2 -4 8 -2 17 6 22 9 6
10 9 2 9 -6 0 -15 -5 -19 -11z"/>
<path d="M2125 850 c-3 -5 -1 -10 4 -10 6 0 11 5 11 10 0 6 -2 10 -4 10 -3 0
-8 -4 -11 -10z"/>
<path d="M1970 834 c0 -8 5 -12 10 -9 6 4 8 11 5 16 -9 14 -15 11 -15 -7z"/>
<path d="M2170 843 c0 -14 19 -38 25 -32 8 8 -5 39 -16 39 -5 0 -9 -3 -9 -7z"/>
<path d="M690 824 c0 -8 5 -12 10 -9 6 3 10 10 10 16 0 5 -4 9 -10 9 -5 0 -10
-7 -10 -16z"/>
<path d="M2230 810 c-12 -23 2 -27 19 -6 8 9 8 16 2 20 -6 4 -15 -3 -21 -14z"/>
<path d="M2140 810 c0 -5 5 -10 10 -10 6 0 10 5 10 10 0 6 -4 10 -10 10 -5 0
-10 -4 -10 -10z"/>
<path d="M2256 784 c-9 -23 -7 -34 5 -34 6 0 9 7 5 15 -3 8 -1 15 4 15 6 0 10
5 10 10 0 16 -17 12 -24 -6z"/>
<path d="M985 780 c4 -6 11 -8 16 -5 14 9 11 15 -7 15 -8 0 -12 -5 -9 -10z"/>
<path d="M370 764 c0 -8 5 -12 10 -9 6 4 8 11 5 16 -9 14 -15 11 -15 -7z"/>
<path d="M1578 773 c7 -3 16 -2 19 1 4 3 -2 6 -13 5 -11 0 -14 -3 -6 -6z"/>
<path d="M1205 730 c-3 -5 -1 -10 4 -10 6 0 11 5 11 10 0 6 -2 10 -4 10 -3 0
-8 -4 -11 -10z"/>
<path d="M490 719 c0 -5 5 -7 10 -4 6 3 10 8 10 11 0 2 -4 4 -10 4 -5 0 -10
-5 -10 -11z"/>
<path d="M1446 685 c4 -8 11 -15 16 -15 6 0 5 6 -2 15 -7 8 -14 15 -16 15 -2
0 -1 -7 2 -15z"/>
<path d="M233 613 c9 -2 23 -2 30 0 6 3 -1 5 -18 5 -16 0 -22 -2 -12 -5z"/>
<path d="M1548 613 c7 -3 16 -2 19 1 4 3 -2 6 -13 5 -11 0 -14 -3 -6 -6z"/>
<path d="M2501 604 c0 -11 3 -14 6 -6 3 7 2 16 -1 19 -3 4 -6 -2 -5 -13z"/>
<path d="M2420 579 c0 -5 5 -7 10 -4 6 3 10 8 10 11 0 2 -4 4 -10 4 -5 0 -10
-5 -10 -11z"/>
<path d="M180 570 c0 -5 5 -10 10 -10 6 0 10 5 10 10 0 6 -4 10 -10 10 -5 0
-10 -4 -10 -10z"/>
<path d="M1600 540 c0 -5 5 -10 11 -10 5 0 7 5 4 10 -3 6 -8 10 -11 10 -2 0
-4 -4 -4 -10z"/>
<path d="M2301 534 c0 -11 3 -14 6 -6 3 7 2 16 -1 19 -3 4 -6 -2 -5 -13z"/>
<path d="M1378 533 c7 -3 16 -2 19 1 4 3 -2 6 -13 5 -11 0 -14 -3 -6 -6z"/>
<path d="M1250 434 c0 -8 5 -12 10 -9 6 4 8 11 5 16 -9 14 -15 11 -15 -7z"/>
<path d="M1100 430 c0 -5 5 -10 10 -10 6 0 10 5 10 10 0 6 -4 10 -10 10 -5 0
-10 -4 -10 -10z"/>
<path d="M160 390 c0 -5 5 -10 11 -10 5 0 7 5 4 10 -3 6 -8 10 -11 10 -2 0 -4
-4 -4 -10z"/>
<path d="M200 369 c0 -5 5 -7 10 -4 6 3 10 8 10 11 0 2 -4 4 -10 4 -5 0 -10
-5 -10 -11z"/>
<path d="M238 353 c7 -3 16 -2 19 1 4 3 -2 6 -13 5 -11 0 -14 -3 -6 -6z"/>
</g>
</svg>
